D:\school\WTK\thesis\model\3dpredictsim\Results\batch_windlass\Pog_s1_tmt_aCst_d05_k500_WL10_ig24_pas_GRF.mot
nRows=22
nColumns=19

name D:\school\WTK\thesis\model\3dpredictsim\Results\batch_windlass\Pog_s1_tmt_aCst_d05_k500_WL10_ig24_pas_GRF.mot
datacolumns 19
datarows 22
range 0.5424341821 0.7702565385
endheader
time 	ground_force_vx	ground_force_vy	ground_force_vz	ground_force_px	ground_force_py	ground_force_pz	1_ground_force_vx	1_ground_force_vy	1_ground_force_vz	1_ground_force_px	1_ground_force_py	1_ground_force_pz	ground_torque_x	ground_torque_y	ground_torque_z	1_ground_torque_x	1_ground_torque_y	1_ground_torque_z
        0.5424341821	      101.6079387439	      468.5662186734	        2.9454687389	        0.3436985127	        0.0000000000	        0.0354559419	     -104.6004678521	       81.3249170977	      -30.8380946295	        0.8177579094	        0.0000000000	       -0.0402599247	        0.0000000000	        0.0000000000	        0.0000000000	        0.0000000000	        0.0000000000	        0.0000000000	
        0.5532828657	       80.2162214949	      385.5769936391	        8.7173059845	        0.3483033886	        0.0000000000	        0.0339045551	     -152.0706229671	      161.6291710236	      -66.8500666539	        0.8289151281	        0.0000000000	       -0.0389996300	        0.0000000000	        0.0000000000	        0.0000000000	        0.0000000000	        0.0000000000	        0.0000000000	
        0.5641315493	       52.5406058762	      286.2429647694	       10.1018345179	        0.3562161982	        0.0000000000	        0.0305975065	      -67.9071766595	      352.4768469967	      -26.9778351285	        0.8432402285	        0.0000000000	       -0.0398115552	        0.0000000000	        0.0000000000	        0.0000000000	        0.0000000000	        0.0000000000	        0.0000000000	
        0.5749802330	       25.4349821102	      190.8625971487	        8.8944522276	        0.3697307653	        0.0000000000	        0.0240154839	      -68.8937233597	      574.5493465419	        2.8896991936	        0.8513962466	        0.0000000000	       -0.0411277949	        0.0000000000	        0.0000000000	        0.0000000000	        0.0000000000	        0.0000000000	        0.0000000000	
        0.5858289166	        8.3179279340	      148.3325144928	       11.3182570434	        0.3760844867	        0.0000000000	        0.0204526278	      -93.8299678704	      754.2072277377	       10.9859339886	        0.8591588873	        0.0000000000	       -0.0415301460	        0.0000000000	        0.0000000000	        0.0000000000	        0.0000000000	        0.0000000000	        0.0000000000	
        0.5966776003	        5.2729893042	      112.9426617353	       12.8869634272	        0.3765099220	        0.0000000000	        0.0206399904	     -123.1715432406	      864.0809726263	       11.4667039629	        0.8679951423	        0.0000000000	       -0.0412020466	        0.0000000000	        0.0000000000	        0.0000000000	        0.0000000000	        0.0000000000	        0.0000000000	
        0.6075262839	       -0.4973965997	       72.4838467539	       12.1526723964	        0.3767849128	        0.0000000000	        0.0207621458	     -124.3277149885	      893.0710913013	       10.8477922115	        0.8752113404	        0.0000000000	       -0.0405448562	        0.0000000000	        0.0000000000	        0.0000000000	        0.0000000000	        0.0000000000	        0.0000000000	
        0.6183749675	       -7.7215433240	       27.4781253764	        5.8791189898	        0.3760452588	        0.0000000000	        0.0205562327	     -114.4391089507	      863.8891929408	        9.9819443363	        0.8796243397	        0.0000000000	       -0.0400359274	        0.0000000000	        0.0000000000	        0.0000000000	        0.0000000000	        0.0000000000	        0.0000000000	
        0.6292236512	        0.0913393519	       -0.0928054392	       -0.0066247698	        0.0000000000	        0.0000000000	        0.0000000000	     -100.3052244533	      821.8799708320	       10.3007644900	        0.8830825990	        0.0000000000	       -0.0396471649	        0.0000000000	        0.0000000000	        0.0000000000	        0.0000000000	        0.0000000000	        0.0000000000	
        0.6400723348	        0.0001336247	       -0.0001108318	        0.0000034358	        0.0000000000	        0.0000000000	        0.0000000000	      -86.2129899532	      777.9153852417	       11.6921103118	        0.8862484727	        0.0000000000	       -0.0393603458	        0.0000000000	        0.0000000000	        0.0000000000	        0.0000000000	        0.0000000000	        0.0000000000	
        0.6509210185	        0.0000286642	       -0.0000203668	        0.0000015693	        0.0000000000	        0.0000000000	        0.0000000000	      -73.1276989449	      737.5553883178	       12.8541358999	        0.8894511920	        0.0000000000	       -0.0391886325	        0.0000000000	        0.0000000000	        0.0000000000	        0.0000000000	        0.0000000000	        0.0000000000	
        0.6617697021	        0.0002055212	       -0.0001299143	        0.0000140117	        0.0000000000	        0.0000000000	        0.0000000000	      -61.6207178429	      701.8492850988	       13.4458476230	        0.8927954249	        0.0000000000	       -0.0391130635	        0.0000000000	        0.0000000000	        0.0000000000	        0.0000000000	        0.0000000000	        0.0000000000	
        0.6726183857	        0.0047557671	       -0.0027477075	        0.0003625672	        0.0000000000	        0.0000000000	        0.0000000000	      -51.2744415452	      671.4457718685	       14.5751580322	        0.8967828424	        0.0000000000	       -0.0390928060	        0.0000000000	        0.0000000000	        0.0000000000	        0.0000000000	        0.0000000000	        0.0000000000	
        0.6834670694	       -0.0260067501	        0.0139980043	       -0.0021397358	        0.0000000000	        0.0000000000	        0.0000000000	      -43.1678754801	      646.5953984519	       16.0368784428	        0.9017105238	        0.0000000000	       -0.0390887136	        0.0000000000	        0.0000000000	        0.0000000000	        0.0000000000	        0.0000000000	        0.0000000000	
        0.6943157530	       -0.0209506957	        0.0106388849	       -0.0018305424	        0.0000000000	        0.0000000000	        0.0000000000	      -37.3003841092	      627.2761025240	       17.1455100985	        0.9072252024	        0.0000000000	       -0.0390832751	        0.0000000000	        0.0000000000	        0.0000000000	        0.0000000000	        0.0000000000	        0.0000000000	
        0.7051644367	       -0.0137161787	        0.0066262754	       -0.0012566924	        0.0000000000	        0.0000000000	        0.0000000000	      -32.7278606570	      612.6565084863	       17.8255859544	        0.9129991372	        0.0000000000	       -0.0390729133	        0.0000000000	        0.0000000000	        0.0000000000	        0.0000000000	        0.0000000000	        0.0000000000	
        0.7160131203	       -0.0109429479	        0.0050630528	       -0.0010354356	        0.0000000000	        0.0000000000	        0.0000000000	      -29.0090208664	      601.7129084852	       18.2318611131	        0.9189326774	        0.0000000000	       -0.0390504476	        0.0000000000	        0.0000000000	        0.0000000000	        0.0000000000	        0.0000000000	        0.0000000000	
        0.7268618040	       -0.0113962062	        0.0050785525	       -0.0010983152	        0.0000000000	        0.0000000000	        0.0000000000	      -26.1059669454	      593.4308097584	       18.1206133712	        0.9248148064	        0.0000000000	       -0.0390204234	        0.0000000000	        0.0000000000	        0.0000000000	        0.0000000000	        0.0000000000	        0.0000000000	
        0.7377104876	       -0.0153111663	        0.0066015298	       -0.0014839894	        0.0000000000	        0.0000000000	        0.0000000000	      -23.6028445754	      587.4216347795	       17.7973788857	        0.9306177381	        0.0000000000	       -0.0389785774	        0.0000000000	        0.0000000000	        0.0000000000	        0.0000000000	        0.0000000000	        0.0000000000	
        0.7485591712	       -0.0251721382	        0.0105417566	       -0.0024335564	        0.0000000000	        0.0000000000	        0.0000000000	      -22.0465411522	      583.4421675154	       17.3931187185	        0.9362917666	        0.0000000000	       -0.0389225218	        0.0000000000	        0.0000000000	        0.0000000000	        0.0000000000	        0.0000000000	        0.0000000000	
        0.7594078549	       -0.0471515973	        0.0192509183	       -0.0045259032	        0.0000000000	        0.0000000000	        0.0000000000	      -20.8706925812	      580.5666062535	       16.9307152040	        0.9417090510	        0.0000000000	       -0.0388621366	        0.0000000000	        0.0000000000	        0.0000000000	        0.0000000000	        0.0000000000	        0.0000000000	
        0.7702565385	       -0.0932094778	        0.0372336672	       -0.0088539102	        0.0000000000	        0.0000000000	        0.0000000000	      -19.4970012666	      577.7194020074	       16.5130890077	        0.9468732150	        0.0000000000	       -0.0388006809	        0.0000000000	        0.0000000000	        0.0000000000	        0.0000000000	        0.0000000000	        0.0000000000	
